<?xml version="1.0" standalone="no"?>
<!DOCTYPE svg PUBLIC "-//W3C//DTD SVG 20010904//EN"
 "http://www.w3.org/TR/2001/REC-SVG-20010904/DTD/svg10.dtd">
<svg version="1.0" xmlns="http://www.w3.org/2000/svg"
 width="80.000000pt" height="80.000000pt" viewBox="0 0 80.000000 80.000000"
 preserveAspectRatio="xMidYMid meet">
<metadata>
Created by potrace 1.14, written by Peter Selinger 2001-2017
</metadata>
<g transform="translate(0.000000,80.000000) scale(0.100000,-0.100000)"
fill="#000000" stroke="none">
<path d="M36 773 c10 -68 10 -68 -13 -65 -34 5 -30 -31 7 -70 32 -33 39 -75
18 -96 -10 -10 -16 -8 -30 10 -17 22 -18 11 -18 -264 l0 -288 355 0 355 0 1
63 2 62 9 -62 c6 -41 14 -63 23 -63 11 0 12 17 8 78 -6 81 -1 86 29 24 17 -36
17 -32 2 32 -5 21 -4 27 5 22 8 -5 11 76 11 318 l0 326 -384 0 -385 0 5 -27z
m419 -23 c4 -6 11 -8 16 -5 5 4 9 2 9 -3 0 -6 11 -13 24 -16 14 -3 33 -20 43
-36 9 -17 23 -30 30 -30 7 0 13 -5 13 -12 0 -6 7 -19 16 -29 15 -16 13 -17
-24 -12 -44 6 -82 -10 -82 -33 0 -13 8 -15 38 -12 20 3 47 0 59 -5 42 -19 99
-176 58 -161 -9 4 -15 0 -15 -10 0 -9 7 -16 15 -16 9 0 15 -9 15 -23 0 -12 7
-33 16 -46 16 -22 15 -24 -20 -60 -20 -20 -36 -47 -36 -58 0 -28 -16 -38 -23
-14 -2 11 -41 47 -85 82 -62 48 -78 66 -70 76 13 16 -4 17 -19 2 -6 -6 -9 -17
-7 -24 7 -18 -15 -30 -29 -16 -7 7 -12 19 -12 29 0 9 -8 18 -18 20 -15 3 -18
0 -13 -16 5 -15 1 -22 -13 -27 -25 -8 -60 -63 -82 -130 -13 -39 -20 -49 -35
-47 -11 2 -20 8 -22 13 -7 18 -66 79 -77 79 -31 0 -46 101 -20 130 9 9 22 52
30 94 8 42 20 86 25 96 13 24 50 34 96 27 26 -4 34 -2 34 9 0 20 -40 34 -83
28 -32 -4 -35 -2 -30 19 9 33 61 95 97 115 17 9 60 19 96 23 36 3 68 7 72 7 4
1 10 -3 13 -8z m-9 -525 c4 -8 15 -15 25 -15 10 0 19 -5 19 -11 0 -7 -7 -8
-17 -4 -46 20 -74 17 -113 -10 -22 -15 -40 -30 -40 -32 0 -11 55 10 68 25 7 9
11 11 7 5 -4 -10 7 -12 45 -8 41 3 60 -1 100 -23 49 -26 59 -44 27 -50 -9 -2
-28 11 -43 27 -18 21 -37 31 -55 31 -40 0 -76 -16 -83 -37 -6 -18 -72 -50 -82
-40 -2 2 -2 28 2 58 6 51 9 55 48 75 49 26 85 29 92 9z"/>
<path d="M520 500 c-11 -7 -8 -10 16 -10 30 0 74 -33 61 -46 -3 -3 -10 4 -17
15 -14 27 -36 27 -50 0 -9 -16 -8 -20 2 -18 21 3 65 -18 76 -37 9 -16 10 -16
16 3 8 25 -9 72 -32 89 -20 16 -51 17 -72 4z"/>
<path d="M190 480 c-24 -24 -27 -52 -4 -43 8 3 13 12 10 20 -4 9 1 17 14 20
11 3 20 9 20 14 0 15 -19 10 -40 -11z"/>
<path d="M248 493 c7 -3 16 -2 19 1 4 3 -2 6 -13 5 -11 0 -14 -3 -6 -6z"/>
<path d="M227 466 c-5 -12 1 -16 24 -16 20 0 29 4 27 13 -7 18 -45 20 -51 3z"/>
<path d="M430 469 c0 -8 11 -26 25 -39 32 -30 32 -14 0 25 -17 20 -25 25 -25
14z"/>
<path d="M335 450 c-3 -5 -2 -10 4 -10 5 0 13 5 16 10 3 6 2 10 -4 10 -5 0
-13 -4 -16 -10z"/>
<path d="M350 400 c-6 -11 -8 -20 -6 -20 3 0 10 9 16 20 6 11 8 20 6 20 -3 0
-10 -9 -16 -20z"/>
<path d="M434 405 c8 -8 18 -15 22 -15 3 0 1 7 -6 15 -7 8 -17 15 -22 15 -5 0
-3 -7 6 -15z"/>
<path d="M568 383 c6 -2 18 -2 25 0 6 3 1 5 -13 5 -14 0 -19 -2 -12 -5z"/>
</g>
</svg>
